<svg xmlns="http://www.w3.org/2000/svg" id="Group_2023" width="20.589" height="17.21" viewBox="0 0 20.589 17.21">
    <defs>
        <style>
            .cls-1{fill:#39e29d}
        </style>
    </defs>
    <g id="Group_3">
        <path id="Path_5" d="M594.22 353.031a.864.864 0 0 0-.514.1c-.086.068-.114.171-.114.418v2.327a.1.1 0 0 0 .1.1h.343a1.574 1.574 0 0 0 1.071-.283 1.4 1.4 0 0 0 .532-1.211 1.312 1.312 0 0 0-1.418-1.451z" class="cls-1" transform="translate(-588.824 -347.203)"/>
        <path id="Path_6" d="M576.155 320.526a1.71 1.71 0 0 0 0-1.037 2.163 2.163 0 0 0-2.107-1.41h-4.96a2.29 2.29 0 0 0-1.651.662c-3.2 3.343-3.371 13.023.206 15.358a6.516 6.516 0 0 0 6.441.61 2.046 2.046 0 0 0 .926-.826l.939-1.617a1.71 1.71 0 0 0 .18-1.32 18.749 18.749 0 0 1 .026-10.42zM573.907 330a.1.1 0 0 1-.1.082c-.087 0-.174-.009-.271-.017a1.8 1.8 0 0 1-1.618-.835c-.373-.514-.718-1.136-1.04-1.659-.19-.309-.321-.368-.794-.368h-.224a.1.1 0 0 0-.1.1v1.443c0 .805.1.885.806.963a.1.1 0 0 1 .087.1v.112a.1.1 0 0 1-.1.1h-2.53a.1.1 0 0 1-.1-.1v-.121a.1.1 0 0 1 .087-.1c.731-.083.8-.156.8-.962V324.8c0-.8-.1-.873-.8-.952a.1.1 0 0 1-.086-.1v-.112a.1.1 0 0 1 .1-.1h2.5a2.844 2.844 0 0 1 1.627.345 1.49 1.49 0 0 1 .674 1.313 1.78 1.78 0 0 1-1.177 1.648.1.1 0 0 0-.044.135c.2.333.568.917.839 1.326a8.872 8.872 0 0 0 .779 1.025 1.415 1.415 0 0 0 .631.43.1.1 0 0 1 .063.106z" class="cls-1" transform="translate(-565 -318.079)"/>
    </g>
    <path id="Path_7" d="M643.129 333.608c-.049-3.382-1.533-3.625-4.574-4.038s-4.134 2.824-4.134 2.824c-.219 6.131.314 10.727 3.672 11.36s5.279-2.676 5.3-4.014-.216-2.75-.264-6.132zm-4.862 6.409a4.322 4.322 0 0 1-1.5-.307.094.094 0 0 1-.059-.065c-.073-.284-.182-.914-.249-1.4a.1.1 0 0 1 .072-.106l.151-.038a.1.1 0 0 1 .115.064 1.829 1.829 0 0 0 1.652 1.476 1.059 1.059 0 0 0 1.12-1.119c0-.731-.4-1.044-1.265-1.515-1.041-.564-1.643-1.044-1.643-1.988a1.861 1.861 0 0 1 2.092-1.745 5.965 5.965 0 0 1 1.263.174.094.094 0 0 1 .075.083c.036.327.078.709.146 1.261a.1.1 0 0 1-.076.107l-.145.03a.1.1 0 0 1-.112-.069c-.176-.622-.47-1.225-1.358-1.225a.977.977 0 0 0-1.027 1.061c0 .66.424 1 1.258 1.433 1.168.6 1.714 1.067 1.714 2.018a2 2 0 0 1-2.224 1.87z" class="cls-1" transform="translate(-622.809 -327.623)"/>
</svg>
